<svg height="512" viewBox="0 0 512 512" width="512" xmlns="http://www.w3.org/2000/svg"><g id="flat"><path d="m120 456v-72a31.987 31.987 0 0 0 -16.507-28 32 32 0 1 0 -30.986 0 31.987 31.987 0 0 0 -16.507 28v84a20 20 0 0 0 20 20h76v-32z" fill="#ff6268"/><path d="m152 264h208v192h-208z" fill="#683b0d"/><path d="m296 296h-80l8-32h64z" fill="#a8a8a8"/><path d="m24 144h232v120h-232z" fill="#8feaff"/><path d="m256 24h232v120h-232z" fill="#ff6268"/><path d="m24 24h232v120h-232z" fill="#fbb540"/><path d="m256 144h232v120h-232z" fill="#0bafea"/><path d="m376 96a32 32 0 0 1 32 32v16a0 0 0 0 1 0 0h-64a0 0 0 0 1 0 0v-16a32 32 0 0 1 32-32z" fill="#fbb540"/><path d="m395.2 102.39a23.985 23.985 0 0 1 -38.4 0 32.04 32.04 0 0 1 38.4 0z" fill="#ea9d2d"/><circle cx="376" cy="80" fill="#fbb540" r="24"/><path d="m136 216a32 32 0 0 1 32 32v16a0 0 0 0 1 0 0h-64a0 0 0 0 1 0 0v-16a32 32 0 0 1 32-32z" fill="#0bafea"/><path d="m155.2 222.39a23.985 23.985 0 0 1 -38.4 0 32.04 32.04 0 0 1 38.4 0z" fill="#0a9acd"/><circle cx="136" cy="200" fill="#0bafea" r="24"/><path d="m376 216a32 32 0 0 1 32 32v16a0 0 0 0 1 0 0h-64a0 0 0 0 1 0 0v-16a32 32 0 0 1 32-32z" fill="#02a437"/><path d="m395.2 222.39a23.985 23.985 0 0 1 -38.4 0 32.04 32.04 0 0 1 38.4 0z" fill="#027e2a"/><circle cx="376" cy="200" fill="#02a437" r="24"/><path d="m488 272h-464a8 8 0 0 1 -8-8v-240a8 8 0 0 1 8-8h464a8 8 0 0 1 8 8v240a8 8 0 0 1 -8 8zm-456-16h448v-224h-448z" fill="#cbcbcb"/><path d="m152 456h208v32h-208z" fill="#55300b"/><path d="m216 432h-64a8 8 0 0 1 0-16h59.056l21.789-43.578a8 8 0 0 1 14.31 7.156l-24 48a8 8 0 0 1 -7.155 4.422z" fill="#cbcbcb"/><path d="m360 432h-64a8 8 0 0 1 -7.155-4.422l-24-48a8 8 0 0 1 14.31-7.156l21.789 43.578h59.056a8 8 0 0 1 0 16z" fill="#a8a8a8"/><path d="m216 64h-16a8 8 0 0 1 0-16h16a8 8 0 0 1 0 16z" fill="#ea9d2d"/><path d="m448 96h-16a8 8 0 0 1 0-16h16a8 8 0 0 1 0 16z" fill="#cf5252"/><path d="m456 184h-16a8 8 0 0 1 0-16h16a8 8 0 0 1 0 16z" fill="#8feaff"/><path d="m456 216h-16a8 8 0 0 1 0-16h16a8 8 0 0 1 0 16z" fill="#8feaff"/><path d="m224 96h-24a8 8 0 0 1 0-16h24a8 8 0 0 1 0 16z" fill="#ea9d2d"/><path d="m456 64h-24a8 8 0 0 1 0-16h24a8 8 0 0 1 0 16z" fill="#cf5252"/><path d="m216 184h-24a8 8 0 0 1 0-16h24a8 8 0 0 1 0 16z" fill="#0a9acd"/><path d="m208 216h-16a8 8 0 0 1 0-16h16a8 8 0 0 1 0 16z" fill="#0a9acd"/><path d="m136 96a32 32 0 0 1 32 32v16a0 0 0 0 1 0 0h-64a0 0 0 0 1 0 0v-16a32 32 0 0 1 32-32z" fill="#ff6268"/><path d="m155.2 102.39a23.985 23.985 0 0 1 -38.4 0 32.04 32.04 0 0 1 38.4 0z" fill="#cf5252"/><circle cx="136" cy="80" fill="#ff6268" r="24"/><path d="m120 400v32h-22a18 18 0 0 1 -18-18v-30a16 16 0 0 1 32 0v16z" fill="#cf5252"/><path d="m120 392v-16a16 16 0 0 0 -16-16 16 16 0 0 0 -16 16v30a18 18 0 0 0 18 18h62a16 16 0 0 0 16-16 16 16 0 0 0 -16-16z" fill="#ff6268"/><path d="m392 456v-72a31.987 31.987 0 0 1 16.507-28 32 32 0 1 1 30.986 0 31.987 31.987 0 0 1 16.507 28v84a20 20 0 0 1 -20 20h-76v-32z" fill="#0bafea"/><path d="m392 400v32h22a18 18 0 0 0 18-18v-30a16 16 0 0 0 -32 0v16z" fill="#0a9acd"/><path d="m392 392v-16a16 16 0 0 1 16-16 16 16 0 0 1 16 16v30a18 18 0 0 1 -18 18h-62a16 16 0 0 1 -16-16 16 16 0 0 1 16-16z" fill="#0bafea"/></g></svg>